<svg xmlns="http://www.w3.org/2000/svg" xmlns:xlink="http://www.w3.org/1999/xlink" contentStyleType="text/css" data-diagram-type="ACTIVITY" height="843px" preserveAspectRatio="none" style="width:527px;height:843px;background:#FFFFFF;" version="1.1" viewBox="0 0 527 843" width="527px" zoomAndPan="magnify"><defs/><g><ellipse cx="273.1279" cy="20" fill="#222222" rx="10" ry="10" style="stroke:#222222;stroke-width:1;"/><rect fill="#F1F1F1" height="33.9688" rx="12.5" ry="12.5" style="stroke:#181818;stroke-width:0.5;" width="183.541" x="181.3574" y="50"/><text fill="#000000" font-family="sans-serif" font-size="12" lengthAdjust="spacing" textLength="163.541" x="191.3574" y="71.1387">User Interaction (Frontend)</text><polygon fill="#F1F1F1" points="188.2056,103.9688,358.0503,103.9688,370.0503,115.9688,358.0503,127.9688,188.2056,127.9688,176.2056,115.9688,188.2056,103.9688" style="stroke:#181818;stroke-width:0.5;"/><text fill="#000000" font-family="sans-serif" font-size="11" lengthAdjust="spacing" textLength="169.8447" x="188.2056" y="119.7769">Enter Username and Room ID?</text><text fill="#000000" font-family="sans-serif" font-size="11" lengthAdjust="spacing" textLength="27.3604" x="148.8452" y="113.3745">Valid</text><text fill="#000000" font-family="sans-serif" font-size="11" lengthAdjust="spacing" textLength="36.561" x="370.0503" y="113.3745">Invalid</text><rect fill="#F1F1F1" height="33.9688" rx="12.5" ry="12.5" style="stroke:#181818;stroke-width:0.5;" width="140.0938" x="96.1587" y="137.9688"/><text fill="#000000" font-family="sans-serif" font-size="12" lengthAdjust="spacing" textLength="120.0938" x="106.1587" y="159.1074">Send data to Server</text><rect fill="#F1F1F1" height="33.9688" rx="12.5" ry="12.5" style="stroke:#181818;stroke-width:0.5;" width="169.7598" x="81.3257" y="191.9375"/><text fill="#000000" font-family="sans-serif" font-size="12" lengthAdjust="spacing" textLength="149.7598" x="91.3257" y="213.0762">Join specified Chat Room</text><rect fill="#F1F1F1" height="33.9688" rx="12.5" ry="12.5" style="stroke:#181818;stroke-width:0.5;" width="142.3262" x="308.8872" y="137.9688"/><text fill="#000000" font-family="sans-serif" font-size="12" lengthAdjust="spacing" textLength="122.3262" x="318.8872" y="159.1074">Show Error Message</text><polygon fill="#F1F1F1" points="273.1279,231.9063,285.1279,243.9063,273.1279,255.9063,261.1279,243.9063,273.1279,231.9063" style="stroke:#181818;stroke-width:0.5;"/><rect fill="#F1F1F1" height="33.9688" rx="12.5" ry="12.5" style="stroke:#181818;stroke-width:0.5;" width="194.8145" x="175.7207" y="275.9063"/><text fill="#000000" font-family="sans-serif" font-size="12" lengthAdjust="spacing" textLength="174.8145" x="185.7207" y="297.0449">Message Handling (Backend)</text><polygon fill="#F1F1F1" points="213.353,329.875,332.9028,329.875,344.9028,341.875,332.9028,353.875,213.353,353.875,201.353,341.875,213.353,329.875" style="stroke:#181818;stroke-width:0.5;"/><text fill="#000000" font-family="sans-serif" font-size="11" lengthAdjust="spacing" textLength="119.5498" x="213.353" y="345.6831">User Sends Message?</text><text fill="#000000" font-family="sans-serif" font-size="11" lengthAdjust="spacing" textLength="94.3916" x="106.9614" y="339.2808">Regular Message</text><text fill="#000000" font-family="sans-serif" font-size="11" lengthAdjust="spacing" textLength="117.3423" x="344.9028" y="339.2808">AI-triggered Message</text><rect fill="#F1F1F1" height="33.9688" rx="12.5" ry="12.5" style="stroke:#181818;stroke-width:0.5;" width="261.3477" x="11" y="363.875"/><text fill="#000000" font-family="sans-serif" font-size="12" lengthAdjust="spacing" textLength="241.3477" x="21" y="385.0137">Broadcast message to all users in Room</text><rect fill="#F1F1F1" height="33.9688" rx="12.5" ry="12.5" style="stroke:#181818;stroke-width:0.5;" width="208.6484" x="300.2578" y="363.875"/><text fill="#000000" font-family="sans-serif" font-size="12" lengthAdjust="spacing" textLength="188.6484" x="310.2578" y="385.0137">Send message to Gemini AI API</text><rect fill="#F1F1F1" height="33.9688" rx="12.5" ry="12.5" style="stroke:#181818;stroke-width:0.5;" width="145.0684" x="332.0479" y="417.8438"/><text fill="#000000" font-family="sans-serif" font-size="12" lengthAdjust="spacing" textLength="125.0684" x="342.0479" y="438.9824">Receive AI Response</text><rect fill="#F1F1F1" height="33.9688" rx="12.5" ry="12.5" style="stroke:#181818;stroke-width:0.5;" width="224.4688" x="292.3477" y="471.8125"/><text fill="#000000" font-family="sans-serif" font-size="12" lengthAdjust="spacing" textLength="204.4688" x="302.3477" y="492.9512">Broadcast AI response to all users</text><polygon fill="#F1F1F1" points="273.1279,511.7813,285.1279,523.7813,273.1279,535.7813,261.1279,523.7813,273.1279,511.7813" style="stroke:#181818;stroke-width:0.5;"/><rect fill="#F1F1F1" height="33.9688" rx="12.5" ry="12.5" style="stroke:#181818;stroke-width:0.5;" width="178.8711" x="183.6924" y="555.7813"/><text fill="#000000" font-family="sans-serif" font-size="12" lengthAdjust="spacing" textLength="158.8711" x="193.6924" y="576.9199">Real-Time Communication</text><rect fill="#F1F1F1" height="33.9688" rx="12.5" ry="12.5" style="stroke:#181818;stroke-width:0.5;" width="264.8398" x="140.708" y="609.75"/><text fill="#000000" font-family="sans-serif" font-size="12" lengthAdjust="spacing" textLength="244.8398" x="150.708" y="630.8887">Update User Lists and Message Histories</text><rect fill="#F1F1F1" height="33.9688" rx="12.5" ry="12.5" style="stroke:#181818;stroke-width:0.5;" width="189.207" x="178.5244" y="712.1211"/><text fill="#000000" font-family="sans-serif" font-size="12" lengthAdjust="spacing" textLength="169.207" x="188.5244" y="733.2598">Reflect changes in real-time</text><polygon fill="#F1F1F1" points="204.2249,663.7188,342.031,663.7188,354.031,675.7188,342.031,687.7188,204.2249,687.7188,192.2249,675.7188,204.2249,663.7188" style="stroke:#181818;stroke-width:0.5;"/><text fill="#000000" font-family="sans-serif" font-size="11" lengthAdjust="spacing" textLength="19.2178" x="277.1279" y="697.9292">Yes</text><text fill="#000000" font-family="sans-serif" font-size="11" lengthAdjust="spacing" textLength="137.8062" x="204.2249" y="679.5269">User Joins/Leaves Room?</text><polygon fill="#F1F1F1" points="273.1279,766.0898,285.1279,778.0898,273.1279,790.0898,261.1279,778.0898,273.1279,766.0898" style="stroke:#181818;stroke-width:0.5;"/><ellipse cx="273.1279" cy="821.0898" fill="none" rx="11" ry="11" style="stroke:#222222;stroke-width:1;"/><ellipse cx="273.1279" cy="821.0898" fill="#222222" rx="6" ry="6" style="stroke:#222222;stroke-width:1;"/><line style="stroke:#181818;stroke-width:1;" x1="273.1279" x2="273.1279" y1="30" y2="50"/><polygon fill="#181818" points="269.1279,40,273.1279,50,277.1279,40,273.1279,44" style="stroke:#181818;stroke-width:1;"/><line style="stroke:#181818;stroke-width:1;" x1="166.2056" x2="166.2056" y1="171.9375" y2="191.9375"/><polygon fill="#181818" points="162.2056,181.9375,166.2056,191.9375,170.2056,181.9375,166.2056,185.9375" style="stroke:#181818;stroke-width:1;"/><line style="stroke:#181818;stroke-width:1;" x1="176.2056" x2="166.2056" y1="115.9688" y2="115.9688"/><line style="stroke:#181818;stroke-width:1;" x1="166.2056" x2="166.2056" y1="115.9688" y2="137.9688"/><polygon fill="#181818" points="162.2056,127.9688,166.2056,137.9688,170.2056,127.9688,166.2056,131.9688" style="stroke:#181818;stroke-width:1;"/><line style="stroke:#181818;stroke-width:1;" x1="370.0503" x2="380.0503" y1="115.9688" y2="115.9688"/><line style="stroke:#181818;stroke-width:1;" x1="380.0503" x2="380.0503" y1="115.9688" y2="137.9688"/><polygon fill="#181818" points="376.0503,127.9688,380.0503,137.9688,384.0503,127.9688,380.0503,131.9688" style="stroke:#181818;stroke-width:1;"/><line style="stroke:#181818;stroke-width:1;" x1="166.2056" x2="166.2056" y1="225.9063" y2="243.9063"/><line style="stroke:#181818;stroke-width:1;" x1="166.2056" x2="261.1279" y1="243.9063" y2="243.9063"/><polygon fill="#181818" points="251.1279,239.9063,261.1279,243.9063,251.1279,247.9063,255.1279,243.9063" style="stroke:#181818;stroke-width:1;"/><line style="stroke:#181818;stroke-width:1;" x1="380.0503" x2="380.0503" y1="171.9375" y2="243.9063"/><line style="stroke:#181818;stroke-width:1;" x1="380.0503" x2="285.1279" y1="243.9063" y2="243.9063"/><polygon fill="#181818" points="295.1279,239.9063,285.1279,243.9063,295.1279,247.9063,291.1279,243.9063" style="stroke:#181818;stroke-width:1;"/><line style="stroke:#181818;stroke-width:1;" x1="273.1279" x2="273.1279" y1="83.9688" y2="103.9688"/><polygon fill="#181818" points="269.1279,93.9688,273.1279,103.9688,277.1279,93.9688,273.1279,97.9688" style="stroke:#181818;stroke-width:1;"/><line style="stroke:#181818;stroke-width:1;" x1="273.1279" x2="273.1279" y1="255.9063" y2="275.9063"/><polygon fill="#181818" points="269.1279,265.9063,273.1279,275.9063,277.1279,265.9063,273.1279,269.9063" style="stroke:#181818;stroke-width:1;"/><line style="stroke:#181818;stroke-width:1;" x1="404.582" x2="404.582" y1="397.8438" y2="417.8438"/><polygon fill="#181818" points="400.582,407.8438,404.582,417.8438,408.582,407.8438,404.582,411.8438" style="stroke:#181818;stroke-width:1;"/><line style="stroke:#181818;stroke-width:1;" x1="404.582" x2="404.582" y1="451.8125" y2="471.8125"/><polygon fill="#181818" points="400.582,461.8125,404.582,471.8125,408.582,461.8125,404.582,465.8125" style="stroke:#181818;stroke-width:1;"/><line style="stroke:#181818;stroke-width:1;" x1="201.353" x2="141.6738" y1="341.875" y2="341.875"/><line style="stroke:#181818;stroke-width:1;" x1="141.6738" x2="141.6738" y1="341.875" y2="363.875"/><polygon fill="#181818" points="137.6738,353.875,141.6738,363.875,145.6738,353.875,141.6738,357.875" style="stroke:#181818;stroke-width:1;"/><line style="stroke:#181818;stroke-width:1;" x1="344.9028" x2="404.582" y1="341.875" y2="341.875"/><line style="stroke:#181818;stroke-width:1;" x1="404.582" x2="404.582" y1="341.875" y2="363.875"/><polygon fill="#181818" points="400.582,353.875,404.582,363.875,408.582,353.875,404.582,357.875" style="stroke:#181818;stroke-width:1;"/><line style="stroke:#181818;stroke-width:1;" x1="141.6738" x2="141.6738" y1="397.8438" y2="523.7813"/><line style="stroke:#181818;stroke-width:1;" x1="141.6738" x2="261.1279" y1="523.7813" y2="523.7813"/><polygon fill="#181818" points="251.1279,519.7813,261.1279,523.7813,251.1279,527.7813,255.1279,523.7813" style="stroke:#181818;stroke-width:1;"/><line style="stroke:#181818;stroke-width:1;" x1="404.582" x2="404.582" y1="505.7813" y2="523.7813"/><line style="stroke:#181818;stroke-width:1;" x1="404.582" x2="285.1279" y1="523.7813" y2="523.7813"/><polygon fill="#181818" points="295.1279,519.7813,285.1279,523.7813,295.1279,527.7813,291.1279,523.7813" style="stroke:#181818;stroke-width:1;"/><line style="stroke:#181818;stroke-width:1;" x1="273.1279" x2="273.1279" y1="309.875" y2="329.875"/><polygon fill="#181818" points="269.1279,319.875,273.1279,329.875,277.1279,319.875,273.1279,323.875" style="stroke:#181818;stroke-width:1;"/><line style="stroke:#181818;stroke-width:1;" x1="273.1279" x2="273.1279" y1="535.7813" y2="555.7813"/><polygon fill="#181818" points="269.1279,545.7813,273.1279,555.7813,277.1279,545.7813,273.1279,549.7813" style="stroke:#181818;stroke-width:1;"/><line style="stroke:#181818;stroke-width:1;" x1="273.1279" x2="273.1279" y1="589.75" y2="609.75"/><polygon fill="#181818" points="269.1279,599.75,273.1279,609.75,277.1279,599.75,273.1279,603.75" style="stroke:#181818;stroke-width:1;"/><line style="stroke:#181818;stroke-width:1;" x1="273.1279" x2="273.1279" y1="687.7188" y2="712.1211"/><polygon fill="#181818" points="269.1279,702.1211,273.1279,712.1211,277.1279,702.1211,273.1279,706.1211" style="stroke:#181818;stroke-width:1;"/><line style="stroke:#181818;stroke-width:1;" x1="354.031" x2="377.7314" y1="675.7188" y2="675.7188"/><polygon fill="#181818" points="373.7314,719.1055,377.7314,729.1055,381.7314,719.1055,377.7314,723.1055" style="stroke:#181818;stroke-width:1;"/><line style="stroke:#181818;stroke-width:1;" x1="377.7314" x2="377.7314" y1="675.7188" y2="778.0898"/><line style="stroke:#181818;stroke-width:1;" x1="377.7314" x2="285.1279" y1="778.0898" y2="778.0898"/><polygon fill="#181818" points="295.1279,774.0898,285.1279,778.0898,295.1279,782.0898,291.1279,778.0898" style="stroke:#181818;stroke-width:1;"/><line style="stroke:#181818;stroke-width:1;" x1="273.1279" x2="273.1279" y1="746.0898" y2="766.0898"/><polygon fill="#181818" points="269.1279,756.0898,273.1279,766.0898,277.1279,756.0898,273.1279,760.0898" style="stroke:#181818;stroke-width:1;"/><line style="stroke:#181818;stroke-width:1;" x1="273.1279" x2="273.1279" y1="643.7188" y2="663.7188"/><polygon fill="#181818" points="269.1279,653.7188,273.1279,663.7188,277.1279,653.7188,273.1279,657.7188" style="stroke:#181818;stroke-width:1;"/><line style="stroke:#181818;stroke-width:1;" x1="273.1279" x2="273.1279" y1="790.0898" y2="810.0898"/><polygon fill="#181818" points="269.1279,800.0898,273.1279,810.0898,277.1279,800.0898,273.1279,804.0898" style="stroke:#181818;stroke-width:1;"/><!--SRC=[NP51JyCm38Nl_HK-heU9-tf0snXGD2JK0H97AtLRYpIfugpyVTpITHsvnOvVFhyd4KDCais7K83SHGfe8di7gyVWzUhAD4kuWjLXwC7mp65BWAw4mliMyeVx5693El69biiq0JsRaqv2YH4XUZXHw2baVvqNpmwa8yCLKmdx1kEeb2LaXM2Lktwfq_WVE8JW0xoI2DQaxrp9bJ9F1NXM6CkkXjKEpVSLUTnf097Bx8nQK7ssE6jEd-s2nzAWH6WdQOL7Q-6iIWBAlGJTvkiOkAufw1gtGkFs2uqdQjanR7FOlkMJ3mKPufw6Oa7IUIUK_SVGNfXwDoXN3mf2ktvdJMJls_RisE0GNwQ9Tce_ZOd1aINAcDdicLPyO9A5LKCoSdSax4d6JMUxlaZI2tLboKGm3RgQHa_2W10LOQPIwUuN]--></g></svg>